<svg xmlns="http://www.w3.org/2000/svg" viewBox="0 0 82.32 89.73"><title>a22</title><g data-name="&#x56FE;&#x5C42; 2"><g data-name="Layer 1" fill="#9e005d"><path d="M52.67 35.52l12.49 38.24q.7 2.1 1.76 4.69t1.91 4.49a7.79 7.79 0 0 0 2.56 3.14 10.66 10.66 0 0 0 5 1.65l5.92.4v1.6H54.08v-1.6l3.29-.2a26.13 26.13 0 0 0 3.49-.45 6.8 6.8 0 0 0 2.94-1.25A3.84 3.84 0 0 0 65 83a22.61 22.61 0 0 0-1-5.69S52.86 38.16 52.67 35.52zM4.09 87.73a7.41 7.41 0 0 0 4-1.75A14 14 0 0 0 11 81.55l3.09-7.78L41.07 0l10.66 32.64a12.64 12.64 0 0 1 .53 3.71 18.46 18.46 0 0 1-.57 4L38.52 77.56a21.32 21.32 0 0 0-1.4 6.29q0 2.1 1.1 2.74a10.81 10.81 0 0 0 3.59 1q2.5.4 3.44.45t2.14 0v1.6H0v-1.6z"/></g></g></svg>