<svg xmlns="http://www.w3.org/2000/svg" viewBox="0 0 133.08 135.79"><title>a4</title><g data-name="&#x56FE;&#x5C42; 2"><g data-name="Layer 1" fill="#ff1d25"><path d="M119.89 108.64L87.3 0H45.78L13.19 108.64H0v27.15h54.32v-27.15h-12.8l24.44-81.48h1.16l24.44 81.48h-12.8v27.15h54.32v-27.15h-13.19z"/><path d="M67.36 74l3.22 6.52a.91.91 0 0 0 .69.5l7.19 1a.91.91 0 0 1 .54 1.59l-5.21 5.07a.91.91 0 0 0-.26.81l1.23 7.17a.91.91 0 0 1-1.33 1L67 94.24a.91.91 0 0 0-.85 0l-6.43 3.38a.91.91 0 0 1-1.33-1l1.23-7.17a.91.91 0 0 0-.26-.81l-5.21-5.07a.91.91 0 0 1 .51-1.56l7.19-1a.91.91 0 0 0 .69-.5L65.72 74a.91.91 0 0 1 1.64 0z"/></g></g></svg>