<svg xmlns="http://www.w3.org/2000/svg" viewBox="0 0 47.13 57.2"><title>a3</title><g data-name="&#x56FE;&#x5C42; 2"><g data-name="Layer 1"><path d="M36.15 47.47H16.7a6.69 6.69 0 0 1-6.7-6.75v-4.23a6.69 6.69 0 0 1 6.75-6.75h19.64c3.67-.2 10.23-1.43 10.74-7.73V16c0-10.41-7.44-16-16.7-16h-24v8.12a1.27 1.27 0 0 0 1.24 1.26h22.76a6.45 6.45 0 0 1 6.86 6.75V19A1.27 1.27 0 0 1 36 20.25H16.7A16.65 16.65 0 0 0 0 36.95v3.55a16.65 16.65 0 0 0 16.7 16.7h26.77a3.61 3.61 0 0 0 3.66-3.66v-6.07z" fill="#1a1a1a"/><path d="M19 32.41c-3.49 0-6.24 2.07-6.24 4.69V40c0 2.63 2.75 4.69 6.24 4.69h28.13V32.41z" fill="#ed1c24"/></g></g></svg>