<svg xmlns="http://www.w3.org/2000/svg" viewBox="0 0 64 64" x="0px" y="0px"><title>fossil, nature, skeleton, landscape, underground</title><path d="M8.5,56h47a.51.51,0,0,0,.5-.5V8.5a.51.51,0,0,0-.5-.5H8.5a.51.51,0,0,0-.5.5v47a.51.51,0,0,0,.5.5ZM9,9H55V55H9ZM23,25.79a.5.5,0,0,1,.34-.62l.09,0a.5.5,0,1,1,.28,1l-.09,0A.51.51,0,0,1,23,25.79Zm11,.71A2.5,2.5,0,1,0,31.5,29,2.5,2.5,0,0,0,34,26.5Zm-4,0A1.5,1.5,0,1,1,31.5,28,1.5,1.5,0,0,1,30,26.5Zm9,10.16a.46.46,0,0,0,0-.38l-1-2a.51.51,0,0,0-.67-.23l-2,1a.51.51,0,0,0-.23.67l1,2a.51.51,0,0,0,.29.25.46.46,0,0,0,.38,0l2-1A.51.51,0,0,0,39,36.66Zm-2.25.17-.55-1.11,1.11-.55.55,1.11ZM41,40.66a.46.46,0,0,0,0-.38l-1-2a.51.51,0,0,0-.67-.23l-2,1a.51.51,0,0,0-.23.67l1,2a.51.51,0,0,0,.29.25.46.46,0,0,0,.38,0l2-1A.51.51,0,0,0,41,40.66Zm-2.25.17-.55-1.11,1.11-.55.55,1.11ZM42,42.28a.51.51,0,0,0-.67-.23l-2,1a.51.51,0,0,0-.23.67l1,2a.51.51,0,0,0,.29.25.46.46,0,0,0,.38,0l2-1a.51.51,0,0,0,.25-.29.46.46,0,0,0,0-.38Zm-1.23,2.55-.55-1.11,1.11-.55.55,1.11Zm-17.93.93a2.74,2.74,0,0,0-.64.09l-2.72-5.49a2.5,2.5,0,0,0,1-2,2.4,2.4,0,0,0-.26-1.1,2.5,2.5,0,0,0-2.24-1.39,2.44,2.44,0,0,0-1.11.26h0a2.43,2.43,0,0,0-1.12,1.12,2.39,2.39,0,0,0-1.57.21h0a2.5,2.5,0,0,0-1.39,2.24A2.61,2.61,0,0,0,13,40.85a2.51,2.51,0,0,0,2.24,1.39,2.74,2.74,0,0,0,.64-.09l2.72,5.49a2.5,2.5,0,0,0-1,2,2.4,2.4,0,0,0,.26,1.1,2.5,2.5,0,0,0,2.24,1.39,2.47,2.47,0,0,0,1.11-.26h0a2.43,2.43,0,0,0,1.12-1.12,2.39,2.39,0,0,0,1.57-.21h0a2.5,2.5,0,0,0,1.39-2.24A2.61,2.61,0,0,0,25,47.15,2.51,2.51,0,0,0,22.79,45.76Zm.66,3.84a1.39,1.39,0,0,1-.65.16,1.43,1.43,0,0,1-.58-.12.51.51,0,0,0-.42,0,.52.52,0,0,0-.26.32,1.5,1.5,0,0,1-.77,1,1.59,1.59,0,0,1-.67.15,1.49,1.49,0,0,1-1.34-.83,1.46,1.46,0,0,1-.16-.66,1.49,1.49,0,0,1,.83-1.35.5.5,0,0,0,.23-.67l-3.11-6.27a.5.5,0,0,0-.67-.23,1.47,1.47,0,0,1-.67.16,1.5,1.5,0,0,1-.66-2.84,1.39,1.39,0,0,1,.65-.16,1.43,1.43,0,0,1,.58.12.51.51,0,0,0,.42,0,.52.52,0,0,0,.26-.32,1.5,1.5,0,0,1,.77-1h0a1.59,1.59,0,0,1,.67-.15,1.49,1.49,0,0,1,1.34.83,1.43,1.43,0,0,1,.16.66,1.49,1.49,0,0,1-.83,1.35.5.5,0,0,0-.23.67l3.11,6.27a.48.48,0,0,0,.29.25.5.5,0,0,0,.38,0,1.47,1.47,0,0,1,.67-.16,1.5,1.5,0,0,1,.66,2.84ZM51.38,19.89a2.51,2.51,0,0,0-1.26-.34l-.29,0a2.42,2.42,0,0,0-1-1.21,2.49,2.49,0,0,0-2.95,4l-3.14,5.27a2.45,2.45,0,0,0-3,1.07A2.47,2.47,0,0,0,39.4,30a2.47,2.47,0,0,0,2.48,2.49l.29,0a2.42,2.42,0,0,0,1,1.21,2.49,2.49,0,0,0,2.95-4l3.14-5.27a2.45,2.45,0,0,0,3-1.07h0a2.51,2.51,0,0,0-.87-3.43Zm0,2.92a1.5,1.5,0,0,1-1.29.73,1.57,1.57,0,0,1-.77-.21.49.49,0,0,0-.37-.06.56.56,0,0,0-.31.23l-3.58,6a.5.5,0,0,0,.17.68A1.5,1.5,0,0,1,44.48,33a1.42,1.42,0,0,1-.77-.21h0a1.47,1.47,0,0,1-.7-1,.52.52,0,0,0-.24-.34.49.49,0,0,0-.41,0,1.55,1.55,0,0,1-.48.07,1.46,1.46,0,0,1-.75-.2h0A1.5,1.5,0,0,1,40.4,30a1.54,1.54,0,0,1,.21-.77,1.5,1.5,0,0,1,1.29-.73,1.57,1.57,0,0,1,.77.21.48.48,0,0,0,.37.06.56.56,0,0,0,.31-.23l3.58-6a.5.5,0,0,0-.17-.68A1.5,1.5,0,0,1,47.52,19a1.42,1.42,0,0,1,.77.21h0a1.47,1.47,0,0,1,.7,1,.52.52,0,0,0,.24.34.49.49,0,0,0,.41,0,1.55,1.55,0,0,1,.48-.07,1.46,1.46,0,0,1,.75.2h0A1.5,1.5,0,0,1,51.6,22,1.54,1.54,0,0,1,51.39,22.81ZM43.2,33.64Zm5.6-15.28Zm2.58,1.53ZM40.62,32.11ZM15.15,20.85a.49.49,0,0,0,.57.1l1.78-.89,1.78.89a.49.49,0,0,0,.57-.1l2-2a.49.49,0,0,0,.1-.57l-1-2A.51.51,0,0,0,20.5,16h-4a.51.51,0,0,0-.42.22l-2,3a.5.5,0,0,0,.07.63ZM16.77,17h3.42l.7,1.4L19.4,19.89l-1.68-.84a.49.49,0,0,0-.44,0l-1.68.84-.46-.45ZM35.5,16h1.79l1.86,1.85a.48.48,0,0,0,.7,0l3-3a.47.47,0,0,0,.14-.46.5.5,0,0,0-.33-.36l-6-2a.49.49,0,0,0-.63.31l-1,3a.48.48,0,0,0,.06.45A.52.52,0,0,0,35.5,16Zm1.32-2.87,4.75,1.59L39.5,16.79l-1.65-1.64A.47.47,0,0,0,37.5,15H36.19ZM33.5,41h-3a.5.5,0,0,0-.49.4l-1,5a.51.51,0,0,0,.21.52l3,2a.49.49,0,0,0,.41.06.49.49,0,0,0,.32-.26l1-2h0a.29.29,0,0,0,0-.1s0-.06,0-.09v-5a.51.51,0,0,0-.5-.5ZM33,46.38l-.69,1.39-2.25-1.5L30.91,42H33ZM35.62,33l-8,2h-.2l-6-1A.5.5,0,0,1,21,33.5v-2a.5.5,0,0,1,.42-.49l3.81-.64L20.36,29A.5.5,0,0,1,20,28.5v-2a.5.5,0,0,1,.36-.48l1.37-.39h0a.5.5,0,0,1,.28,1l-1,.29v1.24L27.64,30a.5.5,0,0,1-.06,1L22,31.92v1.16l5.48.91,7.62-1.91L37,25.6,34.25,22H29.77l-1.85,2.78a.51.51,0,0,1-.28.2l-1.79.51a.5.5,0,0,1-.62-.34.51.51,0,0,1,.35-.62l1.61-.46,1.89-2.85A.51.51,0,0,1,29.5,21h5a.48.48,0,0,1,.4.2l3,4a.53.53,0,0,1,.08.44l-2,7A.53.53,0,0,1,35.62,33ZM51,43.34a.48.48,0,0,0-.31-.31l-3-1a.47.47,0,0,0-.4,0,.54.54,0,0,0-.25.32l-1,3.86-1.9,1.91a.47.47,0,0,0-.15.35v2a.51.51,0,0,0,.28.45l2,1a.46.46,0,0,0,.38,0,.51.51,0,0,0,.29-.25l.74-1.49,2.53,1.69a.49.49,0,0,0,.47,0,.48.48,0,0,0,.3-.36l1-5,0-.26Zm-.81,7.33-2.38-1.59a.49.49,0,0,0-.41-.06.49.49,0,0,0-.32.26l-.77,1.55L45,50.19V48.71l1.85-1.86.14-.23.86-3.47,2.25.75L51,46.53Z"></path></svg>