<svg xmlns="http://www.w3.org/2000/svg" xmlns:xlink="http://www.w3.org/1999/xlink" version="1.1" x="0px" y="0px" viewBox="0 0 64 64"  xml:space="preserve"><g><polygon points="30,31.638 24.768,25.36 23.232,26.64 28,32.362 28,35.465 22,39.465 22,43 24,43 24,40.535 30,36.535  "></polygon><path d="M28.434,19.795l-0.852-0.609l-1.163,1.627l0.853,0.609C30.858,23.984,33,28.146,33,32.555c0,2.71-0.794,5.334-2.298,7.588   l-1.534,2.302l1.664,1.109l1.534-2.302C34.089,38.669,35,35.661,35,32.555C35,27.501,32.545,22.731,28.434,19.795z"></path><path d="M38,32.555c0,2.71-0.794,5.334-2.298,7.588l-1.534,2.302l1.664,1.109l1.534-2.302C39.089,38.669,40,35.661,40,32.555   c0-5.054-2.455-9.824-6.566-12.76l-0.852-0.609l-1.163,1.627l0.853,0.609C35.858,23.984,38,28.146,38,32.555z"></path><path d="M38.434,19.795l-0.852-0.609l-1.163,1.627l0.853,0.609C40.858,23.984,43,28.146,43,32.555c0,2.71-0.794,5.334-2.298,7.588   l-1.534,2.302l1.664,1.109l1.534-2.302C44.089,38.669,45,35.661,45,32.555C45,27.501,42.545,22.731,38.434,19.795z"></path><path d="M48,32h2c0-4.889-1.837-8.854-5.615-12.124l-0.73-0.632l-1.309,1.512l0.73,0.633C46.436,24.295,48,27.667,48,32z"></path><path d="M50,33c-1.654,0-3,1.346-3,3v0.172c0,1.557-0.606,3.021-1.707,4.121l1.414,1.414C48.186,40.229,49,38.264,49,36.172V36   c0-0.552,0.449-1,1-1s1,0.448,1,1v2c0,2.407-0.74,4.715-2.139,6.674l-0.35,0.49c-1.448,2.027-2.294,4.373-2.474,6.836H43v2h5v-1   c0-2.406,0.739-4.715,2.139-6.674l0.35-0.49C52.131,43.536,53,40.826,53,38v-2C53,34.346,51.654,33,50,33z"></path><path d="M36.672,45.689C36.232,46.35,36,47.116,36,47.908V50c0,1.103-0.897,2-2,2v2c2.206,0,4-1.794,4-4v-2.092   c0-0.396,0.116-0.779,0.336-1.109l1.496-2.244l-1.664-1.109L36.672,45.689z"></path><path d="M25,22.351v-6.586L22.618,11H16.89c-1.529,0-2.929,0.772-3.745,2.064l-0.1,0.158c-0.355,0.563-0.905,0.961-1.605,1.136   c-2.044,0.511-3.459,2.338-3.441,4.442L8,20h7.586l1,1l-1.057,1.057L8,23.133V24c0,2.206,1.794,4,4,4h8.48L25,22.351z M12,26   c-0.803,0-1.497-0.475-1.814-1.159l6.286-0.898L18.414,22H21v-2h-2.586l-2-2h-6.298c0.261-0.827,0.943-1.484,1.866-1.714   c1.146-0.287,2.125-0.996,2.755-1.995l0.1-0.158C15.284,13.423,16.052,13,16.89,13h4.492L23,16.236v5.414L19.52,26H12z"></path><path d="M50.781,19.375l-1.562,1.249l0.876,1.096C51.969,24.062,53,27.002,53,30h2c0-3.451-1.187-6.834-3.343-9.529L50.781,19.375z   "></path><polygon points="23,30 21,30 21,33.382 15,36.382 15,41 17,41 17,37.618 23,34.618  "></polygon><path d="M61,19.941v-3.196c0-2.673-1.452-5.14-3.788-6.437l-4.285-2.381C51.836,7.32,50.6,7,49.351,7H27.986   c-1.372-1.871-3.539-3-5.919-3H8.636C6.669,4,4.82,4.766,3.429,6.157L3.157,6.429C1.766,7.82,1,9.669,1,11.636v12.331   c0,0.793,0.127,1.577,0.378,2.329l1.519,4.557l-0.66,0.99C1.428,33.057,1,34.469,1,35.927v8.29c0,0.601,0.074,1.201,0.22,1.785   l1.605,6.42C3.646,55.706,6.583,58,9.969,58h3.677c1.757,0,3.459-0.63,4.792-1.773l0.41-0.351l10.556,4.528   C30.328,60.8,31.305,61,32.307,61h20.329C56.697,61,60,57.696,60,53.636c0-1.762-0.619-3.426-1.746-4.754l3.627-5.803   C62.613,41.906,63,40.557,63,39.175V24.981C63,23.09,62.278,21.298,61,19.941z M61,39.175c0,1.007-0.282,1.989-0.815,2.843   l-3.366,5.386l-1.111-1.111l-1.414,1.414l2.136,2.136C57.442,50.855,58,52.203,58,53.636C58,56.594,55.594,59,52.636,59H32.307   c-0.73,0-1.442-0.146-2.115-0.435l-9.652-4.14l3.111-2.666l-1.302-1.518l-5.212,4.468C16.166,55.541,14.926,56,13.646,56H9.969   c-2.466,0-4.606-1.671-5.204-4.062l-1.605-6.42C3.054,45.092,3,44.654,3,44.217v-8.29c0-1.062,0.312-2.091,0.901-2.975l2.931-4.397   l-1.664-1.109l-0.866,1.299l-1.027-3.081C3.093,25.116,3,24.545,3,23.967V11.636c0-1.433,0.558-2.78,1.571-3.793l0.272-0.272   C5.856,6.558,7.203,6,8.636,6h13.431c2.045,0,3.883,1.136,4.797,2.965l0.932,1.864c0.963,1.925,2.713,3.329,4.801,3.851l1.16,0.29   l0.485-1.94l-1.16-0.29c-1.521-0.38-2.796-1.403-3.497-2.805L29.118,9h20.233c0.91,0,1.81,0.233,2.604,0.675l4.286,2.381   C57.943,13.001,59,14.797,59,16.745v1.454l-2.36-1.967l-1.28,1.536l3.71,3.092c1.227,1.022,1.93,2.524,1.93,4.121V39.175z"></path></g></svg>