<svg xmlns="http://www.w3.org/2000/svg" viewBox="0 0 111.06 99.59"><title>11</title><g fill-rule="evenodd"><path d="M28.46 33.53l10.88 20L34.75 62l-3.68 6.75-4.85 8.94-3.12 5.7-8.81 16.2h-3.61A11 11 0 0 1 0 88.67v-.48a10.83 10.83 0 0 1 1.34-4.8l3.12-5.74L13 62l5.18-9.51 10.88 20 2-3.71-10.85-20zM56.21 0h.34a15.84 15.84 0 0 1 13.73 8.37l12.15 22.34.35.65L91 46.53l18.45 34 .2.39a12.71 12.71 0 0 1 1.38 5.69V87a13 13 0 0 1-13 12.57l-8.82-16.2-3.12-5.74-4.19-7.82-.9-1.67-.85-1.57L77.62 62l-5.75-10.59-1.78-3.28-13.92-25.56-14.81 27.22-10.86-20L42.13 8.37A15.87 15.87 0 0 1 56.21 0z" fill="#f6bf4e"/><path d="M23.22 23.92l5.24 9.61 10.88 20 15.71 28.82 14.79-27.2 8.28 15.13L65.7 93.12l-.15.28a12.16 12.16 0 0 1-21.21-.28L31.07 68.71 14.6 38.42a9.81 9.81 0 0 1 8.62-14.5zm66.12 0h.25a8.32 8.32 0 0 1 7.06 12.29l-2.37 4.35-1.22 2.22-8.24-15.18 2-3.68z" fill="#6380fd"/></g></svg>