<svg xmlns="http://www.w3.org/2000/svg" viewBox="0 0 104.12 99.33"><title>3</title><g fill-rule="evenodd"><path d="M34.7 61.13l-.82.25c-.82.25-1.64.53-2.45.83l-.71.29-.68.26C20.15 66.77 12.52 73.52 7 80L36 0h28l40.16 99.33H74.29L47.35 29.54z" fill="#fa7c1f"/><path d="M34.83 66c-.3.09-.59.2-.88.3l-.86.31-.68.26c-.49.2-1 .39-1.47.61-.48.2-1 .41-1.43.63l-1 .5-.77.38-1 .53-.89.51c-.59.35-1.17.69-1.74 1.06C8.54 81 .71 97.77 0 99.22v.07h25.33a.62.62 0 0 1 0-.11c6.09-18 27.07-22.14 40-12.43L60.5 71.5l-2.09-6.56a49.83 49.83 0 0 0-10.1-1.07A43.53 43.53 0 0 0 34.83 66" fill="#3f2b95"/></g></svg>